<?xml version="1.0" ?><svg data-name="Layer 21" height="24" id="Layer_21" viewBox="0 0 24 24" width="24" xmlns="http://www.w3.org/2000/svg"><title/><path d="M21.80731,7.805a2.79915,2.79915,0,0,0-2.54907-2.53906C17.69061,5.13586,15.36707,5,12.50012,5c-3.45251,0-6.05865.14105-7.74353.27332A2.79932,2.79932,0,0,0,2.1925,7.815C2.08936,8.90021,2,10.33344,2,12.0423c0,1.66632.08862,3.07422.19128,4.14594a2.79852,2.79852,0,0,0,2.56384,2.53833C6.43994,18.85883,9.04657,19,12.50012,19c2.86694,0,5.19049-.13586,6.75812-.266a2.799,2.799,0,0,0,2.54907-2.539C21.91052,15.11548,22,13.69189,22,12S21.91052,8.88452,21.80731,7.805ZM9.77594,14.93878V9.06122L15.574,12Z"/></svg>